:SAMPLES-PER-SECOND 30
:FULLY-SPECIFIED
:DEGREES
1071
root  26.9253 38.1193 -27.1896 -2.59375 71.6721 10.0144
RightUpLeg  19.9955 1.48313 -8.71122
RightLeg  33.5991 -0.69132 -0.834563
RightFoot  -14.2385 0.217159 11.7202
RightToes  0.00048216 0.542163 -0.142577
Spine  19.4057 -1.14518 2.36172
Spine1  13.2831 -1.65039 2.43898
HEad  13.9161 -11.6233 2.61813
LeftShoulder1  10.546 -15.3071 -48.9496
LeftArm  10.2079 3.24578 -30.7188
LeftForeArm  77.1216 -79.6463 -72.6939
LeftHand  -0.25398 0.0180481 5.50724
RightShoulder  5.64988 9.71417 36.7427
RightArm  3.7059 -18.47 34.8035
RightForeArm  67.1586 76.4956 117.11
RightHand  -9.26481 18.8307 -42.784
LeftUpLeg  -13.848 19.3801 -0.192329
LeftLeg  19.212 -1.87828 -0.107647
LeftFoot  8.00313 -0.397309 2.03348
LeftToes  1.06245e-005 4.65856e-005 -8.18504e-006
1072
root  28.5337 38.1892 -27.3189 2.854 69.7546 15.1915
RightUpLeg  12.4018 3.66927 -10.7175
RightLeg  46.577 -3.38352 -4.13865
RightFoot  -1.89519 -0.658176 8.62879
RightToes  0.00048216 0.542163 -0.142577
Spine  19.8086 -0.510374 0.439106
Spine1  13.3843 -1.25047 2.26736
HEad  14.333 -12.2843 2.47152
LeftShoulder1  10.6294 -15.4747 -48.9002
LeftArm  11.1834 1.68471 -30.9362
LeftForeArm  67.5872 -78.9399 -63.1877
LeftHand  -0.25398 0.0180481 5.50724
RightShoulder  5.76582 9.93217 36.9079
RightArm  2.39955 -18.2753 35.3355
RightForeArm  61.6978 77.0117 112.003
RightHand  -9.1583 18.6611 -42.6079
LeftUpLeg  -13.2839 21.1696 -2.08649
LeftLeg  22.6467 -0.770304 -0.00980904
LeftFoot  3.12926 -0.22801 1.64389
LeftToes  1.06245e-005 4.65856e-005 -8.18504e-006
1073
root  30.0062 38.2321 -27.471 8.25195 67.5695 19.5125
RightUpLeg  2.56906 4.87168 -12.9059
RightLeg  58.0972 -3.4894 -6.38705
RightFoot  8.57362 -0.345247 2.1194
RightToes  0.00048216 0.542163 -0.142577
Spine  19.7528 -0.077731 -1.72396
Spine1  13.3421 -1.33348 2.42638
HEad  14.2973 -11.9189 1.5853
LeftShoulder1  10.6147 -15.5789 -48.5636
LeftArm  11.3418 0.439474 -31.2584
LeftForeArm  61.3225 -78.2352 -56.9214
LeftHand  -0.25398 0.0180481 5.50724
RightShoulder  5.80978 10.0976 36.7143
RightArm  1.90446 -17.1684 35.7469
RightForeArm  55.6586 77.4681 105.939
RightHand  -8.97854 18.4214 -42.2352
LeftUpLeg  -13.008 23.3158 -4.7181
LeftLeg  24.236 0.206903 0.442546
LeftFoot  -1.03646 -0.136056 1.59412
LeftToes  1.06245e-005 4.65856e-005 -8.18504e-006
1074
root  31.4296 38.3874 -27.6145 11.011 66.1824 21.3302
RightUpLeg  -5.80034 4.33879 -14.0194
RightLeg  64.7657 -2.20767 -5.7136
RightFoot  11.3106 0.274689 -1.05263
RightToes  0.00048216 0.542163 -0.142577
Spine  20.013 -0.22067 -2.98234
Spine1  13.2937 -1.99566 3.33828
HEad  13.7541 -11.1706 0.585902
LeftShoulder1  10.5653 -15.6339 -48.195
LeftArm  11.4433 -1.16689 -31.4889
LeftForeArm  55.8674 -77.4443 -51.7135
LeftHand  -0.25398 0.0180481 5.50724
RightShoulder  5.85107 10.2336 36.5949
RightArm  2.01431 -15.4458 35.5148
RightForeArm  49.956 77.7624 100.032
RightHand  -9.02296 18.5357 -42.2393
LeftUpLeg  -11.9023 23.8494 -6.55067
LeftLeg  24.0081 0.570021 0.622303
LeftFoot  -2.67504 -0.148061 2.16535
LeftToes  1.06245e-005 4.65856e-005 -8.18504e-006
1075
root  32.8461 38.705 -27.7189 11.2938 65.6061 20.9179
RightUpLeg  -11.9624 2.23517 -13.573
RightLeg  66.2043 -1.23311 -3.77374
RightFoot  8.62172 0.0316347 0.225823
RightToes  0.00048216 0.542163 -0.142577
Spine  20.6604 -0.776213 -2.92855
Spine1  13.2913 -2.85758 4.48397
HEad  13.2048 -10.7483 0.123152
LeftShoulder1  10.5215 -15.7082 -47.8043
LeftArm  11.9765 -3.31485 -31.7366
LeftForeArm  49.5861 -76.2669 -45.8147
LeftHand  -0.25398 0.0180481 5.50724
RightShoulder  5.93687 10.3945 36.7158
RightArm  2.08837 -13.6963 34.8916
RightForeArm  43.9642 77.9194 93.9494
RightHand  -9.04039 18.5678 -42.2612
LeftUpLeg  -9.75588 23.7855 -7.08851
LeftLeg  22.6746 0.9123 0.773251
LeftFoot  -3.85331 -0.153013 2.6885
LeftToes  1.06245e-005 4.65856e-005 -8.18504e-006
1076
root  34.2384 38.9669 -27.7614 11.4142 64.826 20.1598
RightUpLeg  -17.2113 -0.372498 -12.3814
RightLeg  63.6552 -1.00389 -2.78501
RightFoot  5.20858 -0.370841 2.75153
RightToes  0.00048216 0.542163 -0.142577
Spine  21.1701 -1.1422 -2.82916
Spine1  13.2153 -3.52375 5.3487
HEad  13.0463 -10.7082 0.228779
LeftShoulder1  10.4924 -15.8171 -47.3961
LeftArm  12.7782 -5.58323 -32.1687
LeftForeArm  43.4755 -74.6978 -39.8828
LeftHand  -0.25398 0.0180481 5.50724
RightShoulder  5.96618 10.4882 36.6411
RightArm  1.93491 -12.216 34.5184
RightForeArm  37.2516 77.9352 87.1662
RightHand  -8.84756 18.3109 -41.8526
LeftUpLeg  -7.61602 24.4821 -7.35125
LeftLeg  21.342 1.50763 0.941292
LeftFoot  -5.92801 -0.0877795 2.59532
LeftToes  1.06245e-005 4.65856e-005 -8.18504e-006
1077
root  35.6481 39.142 -27.7641 11.9662 63.4938 19.6951
RightUpLeg  -21.7263 -3.11171 -10.6894
RightLeg  57.8777 -1.75157 -3.43024
RightFoot  3.13805 -0.307457 2.56416
RightToes  0.00048216 0.542163 -0.142577
Spine  21.4695 -1.2566 -3.04357
Spine1  12.9213 -3.95695 6.19633
HEad  13.1366 -10.6687 0.528496
LeftShoulder1  10.4786 -15.9286 -47.0547
LeftArm  13.4327 -7.5064 -32.7162
LeftForeArm  38.9855 -73.1212 -35.3167
LeftHand  -0.25398 0.0180481 5.50724
RightShoulder  5.86594 10.4359 36.0955
RightArm  1.80071 -10.9442 34.5635
RightForeArm  30.7862 77.7931 80.518
RightHand  -8.68925 18.2147 -41.3271
LeftUpLeg  -5.37424 24.2622 -7.63824
LeftLeg  19.6357 3.30224 0.640223
LeftFoot  -7.63591 -0.0306411 2.37964
LeftToes  1.06245e-005 4.65856e-005 -8.18504e-006
1078
root  37.086 39.2518 -27.7468 12.2504 62.1521 19.415
RightUpLeg  -24.115 -6.5738 -8.53164
RightLeg  48.7227 -2.83936 -3.81918
RightFoot  0.938782 -0.188702 1.84014
RightToes  0.00048216 0.542163 -0.142577
Spine  22.0704 -1.47513 -3.22822
Spine1  12.5919 -4.44648 6.94286
HEad  13.1126 -10.4024 0.743259
LeftShoulder1  10.4887 -16.0458 -46.8114
LeftArm  13.7251 -8.9867 -33.1395
LeftForeArm  36.1333 -71.8559 -32.3566
LeftHand  -0.25398 0.0180481 5.50724
RightShoulder  5.73358 10.3401 35.4461
RightArm  1.72093 -9.77329 34.7434
RightForeArm  25.6787 77.5576 75.1513
RightHand  -8.65791 18.3237 -41.0179
LeftUpLeg  -2.65411 20.0317 -7.80492
LeftLeg  17.8267 8.55448 -0.119866
LeftFoot  -8.83705 -0.00440054 2.6777
LeftToes  1.06245e-005 4.65856e-005 -8.18504e-006
1079
root  38.5656 39.2157 -27.6796 12.5856 60.9199 19.5815
RightUpLeg  -24.5506 -11.5441 -6.01182
RightLeg  36.8789 -2.89233 -2.66215
RightFoot  -1.36049 -0.229145 2.53886
RightToes  0.00048216 0.542163 -0.142577
Spine  22.7532 -1.86388 -3.48071
Spine1  12.394 -5.00343 7.25244
HEad  12.8575 -10.0412 0.807828
LeftShoulder1  10.5413 -16.2053 -46.6608
LeftArm  13.7141 -10.2109 -33.3381
LeftForeArm  34.0697 -70.8182 -30.2889
LeftHand  -0.25398 0.0180481 5.50724
RightShoulder  5.68356 10.324 35.1382
RightArm  1.44438 -8.6563 34.9161
RightForeArm  21.5964 77.2695 70.6005
RightHand  -8.4818 18.0986 -40.609
LeftUpLeg  -0.0893244 14.9289 -8.58578
LeftLeg  16.8345 14.8138 -0.622326
LeftFoot  -10.9451 0.0543528 2.95465
LeftToes  1.06245e-005 4.65856e-005 -8.18504e-006
1080
root  40.1175 39.0552 -27.5362 13.6827 59.6677 20.3497
RightUpLeg  -24.729 -19.3149 -2.54938
RightLeg  24.0341 -1.25049 -1.05672
RightFoot  -1.17969 -0.379507 4.11583
RightToes  0.00048216 0.542163 -0.142577
Spine  22.6717 -2.30313 -3.88182
Spine1  12.6495 -5.58554 7.45581
HEad  12.5472 -9.84637 0.774475
LeftShoulder1  10.645 -16.4052 -46.6458
LeftArm  13.5612 -11.3786 -33.4903
LeftForeArm  32.0465 -69.7331 -28.4041
LeftHand  -0.25398 0.0180481 5.50724
RightShoulder  5.68221 10.3364 35.0923
RightArm  0.935941 -7.54413 35.199
RightForeArm  17.1792 76.8215 65.3146
RightHand  -8.13294 17.5702 -39.9084
LeftUpLeg  2.22748 11.1216 -10.1596
LeftLeg  15.9562 20.0976 -0.94543
LeftFoot  -13.4286 0.125461 2.49312
LeftToes  1.06245e-005 4.65856e-005 -8.18504e-006
